<?xml version="1.0" standalone="no"?>
<!DOCTYPE svg PUBLIC "-//W3C//DTD SVG 20010904//EN"
 "http://www.w3.org/TR/2001/REC-SVG-20010904/DTD/svg10.dtd">
<svg version="1.0" xmlns="http://www.w3.org/2000/svg"
 width="320.000000pt" height="320.000000pt" viewBox="0 0 320.000000 320.000000"
 preserveAspectRatio="xMidYMid meet">
<metadata>
Created by potrace 1.14, written by Peter Selinger 2001-2017
</metadata>
<g transform="translate(0.000000,320.000000) scale(0.100000,-0.100000)"
fill="#000000" stroke="none">
<path d="M1402 3089 c-321 -43 -630 -197 -862 -429 -449 -449 -566 -1124 -294
-1700 106 -225 313 -466 513 -598 512 -340 1153 -343 1666 -7 622 407 846
1227 520 1901 -73 152 -157 268 -289 400 -220 219 -461 350 -761 414 -117 24
-378 35 -493 19z m-342 -221 c0 -7 -42 -35 -94 -61 -228 -118 -445 -335 -579
-578 -13 -23 -21 -29 -29 -21 -26 26 142 272 269 393 95 91 202 169 313 228
99 53 120 59 120 39z m-18 -93 c0 -5 -37 -31 -83 -58 -45 -26 -108 -66 -138
-89 -95 -71 -226 -211 -292 -312 -34 -53 -69 -96 -76 -96 -7 0 -13 2 -13 5 0
16 45 90 98 161 107 143 239 262 396 356 77 46 106 55 108 33z m48 -49 c0 -7
-37 -34 -82 -60 -175 -98 -329 -242 -429 -399 -50 -80 -79 -106 -79 -73 0 30
127 203 210 286 94 95 187 165 294 222 79 42 86 44 86 24z m-10 -85 c0 -5 -28
-26 -62 -47 -92 -55 -164 -113 -244 -196 -81 -84 -115 -128 -168 -215 -21 -35
-42 -63 -47 -63 -44 0 80 191 205 316 125 125 316 249 316 205z m52 -46 c0 -6
-32 -29 -71 -52 -152 -90 -286 -217 -371 -351 -42 -66 -70 -90 -70 -59 0 20
83 142 144 212 72 81 176 165 273 221 76 43 94 49 95 29z m-32 -97 c0 -7 -28
-31 -63 -53 -119 -76 -271 -244 -336 -372 -21 -42 -31 -50 -44 -37 -10 11 49
118 113 202 68 90 132 152 234 223 70 49 96 59 96 37z m74 -47 c3 -5 -29 -31
-72 -57 -90 -57 -221 -183 -281 -271 -41 -61 -61 -77 -61 -49 0 26 84 141 155
211 67 68 215 175 241 175 7 0 15 -4 18 -9z m56 -64 c0 -7 -17 -21 -37 -31
-95 -45 -251 -183 -299 -265 -10 -17 -24 -31 -31 -31 -62 0 114 200 256 291
76 49 111 60 111 36z m0 -81 c0 -7 -26 -29 -58 -49 -66 -41 -169 -139 -214
-204 -21 -32 -33 -42 -41 -34 -16 16 7 52 82 134 65 69 192 167 218 167 7 0
13 -6 13 -14z m34 -54 c3 -5 -25 -30 -63 -56 -80 -54 -152 -127 -206 -209 -26
-39 -42 -54 -48 -48 -32 32 116 207 248 294 41 28 60 33 69 19z m78 -47 c1 -6
-21 -23 -48 -38 -88 -52 -154 -109 -206 -179 -28 -37 -57 -68 -64 -68 -20 0
-18 7 17 61 42 66 153 168 224 206 60 32 76 36 77 18z m-2 -78 c0 -7 -17 -21
-37 -32 -55 -30 -154 -126 -188 -184 -30 -51 -55 -66 -55 -33 0 32 103 156
175 209 69 52 105 66 105 40z m422 -36 c125 -43 228 -130 287 -241 45 -84 61
-149 61 -251 0 -284 -222 -509 -505 -510 -104 0 -163 14 -249 59 -306 161
-368 574 -122 817 68 68 155 118 242 140 77 19 210 13 286 -14z m398 -712 c0
-24 -64 -130 -111 -182 -50 -56 -159 -137 -185 -137 -29 0 -12 26 37 55 67 39
166 146 204 218 27 51 55 75 55 46z m15 -126 c-52 -89 -206 -233 -249 -233
-30 0 -16 18 47 63 72 51 107 89 167 178 29 42 45 58 52 51 7 -7 2 -26 -17
-59z m99 38 c8 -12 -63 -125 -119 -188 -52 -59 -158 -143 -181 -143 -25 0 -15
25 19 45 17 10 62 48 100 83 59 57 82 88 144 190 14 23 28 28 37 13z m296 -61
c0 -54 -120 -247 -219 -353 -47 -50 -195 -167 -212 -167 -26 0 -2 33 59 78
133 99 256 251 323 398 29 64 49 82 49 44z m-250 0 c0 -56 -247 -320 -299
-320 -25 0 -9 29 30 55 61 40 163 147 205 215 33 54 64 78 64 50z m380 -50 c0
-23 -62 -145 -116 -228 -73 -112 -223 -263 -336 -336 -47 -31 -91 -56 -97 -56
-31 0 -2 31 80 85 168 110 319 285 408 473 19 39 41 72 48 72 7 0 13 -5 13
-10z m-246 -23 c-2 -23 -85 -143 -144 -209 -55 -62 -202 -178 -226 -178 -30 0
-11 27 47 65 81 53 215 195 263 278 36 62 63 82 60 44z m166 6 c-1 -53 -147
-269 -247 -364 -125 -118 -293 -222 -293 -179 0 5 28 25 61 45 174 102 317
252 419 438 41 75 60 95 60 60z m-270 -38 c-45 -84 -180 -216 -285 -280 -65
-39 -75 -42 -75 -21 0 7 28 30 61 51 80 49 189 153 246 233 32 44 49 60 56 53
7 -7 6 -18 -3 -36z m383 -32 c9 -8 -63 -142 -120 -222 -68 -94 -166 -194 -262
-267 -82 -61 -207 -134 -230 -134 -25 0 -8 28 27 44 80 38 206 129 288 208 99
96 165 180 230 296 45 80 53 89 67 75z m140 -39 c12 -12 -87 -188 -160 -285
-128 -170 -308 -322 -491 -413 -61 -31 -73 -34 -78 -21 -4 9 -5 17 -3 18 2 1
34 17 70 35 253 126 484 357 602 604 30 62 44 77 60 62z m-90 -10 c10 -11 -62
-141 -126 -228 -111 -149 -271 -288 -423 -368 -65 -34 -84 -38 -84 -18 0 4 38
29 84 55 199 111 378 293 488 493 39 70 47 79 61 66z"/>
<path d="M1577 1649 c-31 -18 -40 -48 -22 -75 28 -43 95 -22 95 30 0 36 -42
62 -73 45z"/>
</g>
</svg>
